TITLE ""
FILE "2Q_t_0571-0587.mp3" MP3
  TRACK 01 AUDIO
    TITLE "2Q_t_0571-0587_01"
    INDEX 01 00:00:00
  TRACK 02 AUDIO
    TITLE "2Q_t_0571-0587_02"
    INDEX 01 00:00:16
  TRACK 03 AUDIO
    TITLE "2Q_t_0571-0587_03"
    INDEX 01 00:01:18
  TRACK 04 AUDIO
    TITLE "2Q_t_0571-0587_04"
    INDEX 01 00:01:69
  TRACK 05 AUDIO
    TITLE "2Q_t_0571-0587_05"
    INDEX 01 00:02:60
  TRACK 06 AUDIO
    TITLE "2Q_t_0571-0587_06"
    INDEX 01 00:03:28
  TRACK 07 AUDIO
    TITLE "2Q_t_0571-0587_07"
    INDEX 01 00:04:45
  TRACK 08 AUDIO
    TITLE "2Q_t_0571-0587_08"
    INDEX 01 00:05:21
  TRACK 09 AUDIO
    TITLE "2Q_t_0571-0587_09"
    INDEX 01 00:08:16
  TRACK 10 AUDIO
    TITLE "2Q_t_0571-0587_10"
    INDEX 01 00:08:59
  TRACK 11 AUDIO
    TITLE "2Q_t_0571-0587_11"
    INDEX 01 00:09:60
  TRACK 12 AUDIO
    TITLE "2Q_t_0571-0587_12"
    INDEX 01 00:10:38
  TRACK 13 AUDIO
    TITLE "2Q_t_0571-0587_13"
    INDEX 01 00:12:27
  TRACK 14 AUDIO
    TITLE "2Q_t_0571-0587_14"
    INDEX 01 00:12:72
  TRACK 15 AUDIO
    TITLE "2Q_t_0571-0587_15"
    INDEX 01 00:14:28
  TRACK 16 AUDIO
    TITLE "2Q_t_0571-0587_16"
    INDEX 01 00:14:73
  TRACK 17 AUDIO
    TITLE "2Q_t_0571-0587_17"
    INDEX 01 00:16:13
  TRACK 18 AUDIO
    TITLE "2Q_t_0571-0587_18"
    INDEX 01 00:16:58
  TRACK 19 AUDIO
    TITLE "2Q_t_0571-0587_19"
    INDEX 01 00:18:06
  TRACK 20 AUDIO
    TITLE "2Q_t_0571-0587_20"
    INDEX 01 00:18:51
  TRACK 21 AUDIO
    TITLE "2Q_t_0571-0587_21"
    INDEX 01 00:19:59
  TRACK 22 AUDIO
    TITLE "2Q_t_0571-0587_22"
    INDEX 01 00:20:38
  TRACK 23 AUDIO
    TITLE "2Q_t_0571-0587_23"
    INDEX 01 00:22:33
  TRACK 24 AUDIO
    TITLE "2Q_t_0571-0587_24"
    INDEX 01 00:23:03
  TRACK 25 AUDIO
    TITLE "2Q_t_0571-0587_25"
    INDEX 01 00:24:17
  TRACK 26 AUDIO
    TITLE "2Q_t_0571-0587_26"
    INDEX 01 00:24:66
  TRACK 27 AUDIO
    TITLE "2Q_t_0571-0587_27"
    INDEX 01 00:26:10
  TRACK 28 AUDIO
    TITLE "2Q_t_0571-0587_28"
    INDEX 01 00:26:55
  TRACK 29 AUDIO
    TITLE "2Q_t_0571-0587_29"
    INDEX 01 00:27:50
  TRACK 30 AUDIO
    TITLE "2Q_t_0571-0587_30"
    INDEX 01 00:28:22
  TRACK 31 AUDIO
    TITLE "2Q_t_0571-0587_31"
    INDEX 01 00:33:72
  TRACK 32 AUDIO
    TITLE "2Q_t_0571-0587_32"
    INDEX 01 00:34:43
  TRACK 33 AUDIO
    TITLE "2Q_t_0571-0587_33"
    INDEX 01 00:35:44
  TRACK 34 AUDIO
    TITLE "2Q_t_0571-0587_34"
    INDEX 01 00:36:28
  TRACK 35 AUDIO
    TITLE "2Q_t_0571-0587_35"
    INDEX 01 00:37:49
  TRACK 36 AUDIO
    TITLE "2Q_t_0571-0587_36"
    INDEX 01 00:38:19
  TRACK 37 AUDIO
    TITLE "2Q_t_0571-0587_37"
    INDEX 01 00:39:55
  TRACK 38 AUDIO
    TITLE "2Q_t_0571-0587_38"
    INDEX 01 00:40:27
  TRACK 39 AUDIO
    TITLE "2Q_t_0571-0587_39"
    INDEX 01 00:41:64
  TRACK 40 AUDIO
    TITLE "2Q_t_0571-0587_40"
    INDEX 01 00:42:34
  TRACK 41 AUDIO
    TITLE "2Q_t_0571-0587_41"
    INDEX 01 00:43:40
  TRACK 42 AUDIO
    TITLE "2Q_t_0571-0587_42"
    INDEX 01 00:44:12
  TRACK 43 AUDIO
    TITLE "2Q_t_0571-0587_43"
    INDEX 01 00:46:52
  TRACK 44 AUDIO
    TITLE "2Q_t_0571-0587_44"
    INDEX 01 00:47:22
  TRACK 45 AUDIO
    TITLE "2Q_t_0571-0587_45"
    INDEX 01 00:48:35
  TRACK 46 AUDIO
    TITLE "2Q_t_0571-0587_46"
    INDEX 01 00:49:09
  TRACK 47 AUDIO
    TITLE "2Q_t_0571-0587_47"
    INDEX 01 00:52:44
  TRACK 48 AUDIO
    TITLE "2Q_t_0571-0587_48"
    INDEX 01 00:53:12
  TRACK 49 AUDIO
    TITLE "2Q_t_0571-0587_49"
    INDEX 01 00:54:37
  TRACK 50 AUDIO
    TITLE "2Q_t_0571-0587_50"
    INDEX 01 00:55:13
  TRACK 51 AUDIO
    TITLE "2Q_t_0571-0587_51"
    INDEX 01 00:57:51
  TRACK 52 AUDIO
    TITLE "2Q_t_0571-0587_52"
    INDEX 01 00:58:21
  TRACK 53 AUDIO
    TITLE "2Q_t_0571-0587_53"
    INDEX 01 00:59:62
  TRACK 54 AUDIO
    TITLE "2Q_t_0571-0587_54"
    INDEX 01 01:00:32
  TRACK 55 AUDIO
    TITLE "2Q_t_0571-0587_55"
    INDEX 01 01:02:74
  TRACK 56 AUDIO
    TITLE "2Q_t_0571-0587_56"
    INDEX 01 01:03:44
  TRACK 57 AUDIO
    TITLE "2Q_t_0571-0587_57"
    INDEX 01 01:04:67
  TRACK 58 AUDIO
    TITLE "2Q_t_0571-0587_58"
    INDEX 01 01:05:43
  TRACK 59 AUDIO
    TITLE "2Q_t_0571-0587_59"
    INDEX 01 01:06:74
  TRACK 60 AUDIO
    TITLE "2Q_t_0571-0587_60"
    INDEX 01 01:07:44
  TRACK 61 AUDIO
    TITLE "2Q_t_0571-0587_61"
    INDEX 01 01:08:71
  TRACK 62 AUDIO
    TITLE "2Q_t_0571-0587_62"
    INDEX 01 01:09:41
  TRACK 63 AUDIO
    TITLE "2Q_t_0571-0587_63"
    INDEX 01 01:12:08
  TRACK 64 AUDIO
    TITLE "2Q_t_0571-0587_64"
    INDEX 01 01:12:55
  TRACK 65 AUDIO
    TITLE "2Q_t_0571-0587_65"
    INDEX 01 01:13:66
  TRACK 66 AUDIO
    TITLE "2Q_t_0571-0587_66"
    INDEX 01 01:14:40
  TRACK 67 AUDIO
    TITLE "2Q_t_0571-0587_67"
    INDEX 01 01:15:63
  TRACK 68 AUDIO
    TITLE "2Q_t_0571-0587_68"
    INDEX 01 01:16:33
  TRACK 69 AUDIO
    TITLE "2Q_t_0571-0587_69"
    INDEX 01 01:17:64
  TRACK 70 AUDIO
    TITLE "2Q_t_0571-0587_70"
    INDEX 01 01:18:34
  TRACK 71 AUDIO
    TITLE "2Q_t_0571-0587_71"
    INDEX 01 01:19:55
